<svg xmlns="http://www.w3.org/2000/svg" xmlns:xlink="http://www.w3.org/1999/xlink" id="Layer_1" width="610" height="30" x="0" y="0" enable-background="new 0 0 610 30" version="1.1" viewBox="0 0 610 30" xml:space="preserve"><rect width="610" height="30" fill="#E6E6E6"/><circle cx="596" cy="15" r="6" fill="#626262" opacity=".3"/><path fill="#626262" d="M320,15c0,1.657-1.344,3-3,3H116c-1.657,0-3-1.343-3-3l0,0c0-1.657,1.343-3,3-3h201	C318.656,12,320,13.343,320,15L320,15z" opacity=".2"/><path fill="#626262" d="M99,15c0,1.657-1.343,3-3,3H21c-1.657,0-3-1.343-3-3l0,0c0-1.657,1.343-3,3-3h75	C97.657,12,99,13.343,99,15L99,15z" opacity=".2"/></svg>