<svg xmlns="http://www.w3.org/2000/svg" xmlns:xlink="http://www.w3.org/1999/xlink" id="Layer_1" width="21" height="21" x="0" y="0" enable-background="new 0 0 21 21" version="1.1" viewBox="0 0 21 21" xml:space="preserve"><switch><g><g><g><path fill="#FFF" d="M20.5,5.738c0,1.645-0.852,3.319-2.556,5.022l-6.953,6.696c-0.134,0.134-0.298,0.201-0.491,0.201 s-0.357-0.067-0.491-0.201l-6.964-6.719c-0.074-0.06-0.177-0.156-0.307-0.29c-0.13-0.134-0.337-0.377-0.62-0.731 S1.583,9,1.359,8.628s-0.422-0.822-0.597-1.35S0.5,6.236,0.5,5.738c0-1.637,0.473-2.917,1.417-3.839 c0.945-0.922,2.25-1.384,3.917-1.384c0.461,0,0.932,0.08,1.412,0.24c0.48,0.16,0.926,0.375,1.339,0.647 c0.413,0.272,0.768,0.526,1.066,0.765c0.297,0.238,0.58,0.491,0.848,0.759c0.268-0.268,0.551-0.521,0.848-0.759 s0.653-0.493,1.066-0.765c0.413-0.271,0.859-0.487,1.339-0.647c0.48-0.16,0.95-0.24,1.412-0.24c1.667,0,2.973,0.461,3.917,1.384 C20.027,2.821,20.5,4.101,20.5,5.738z M19.071,5.738c0-0.603-0.08-1.134-0.24-1.596c-0.16-0.461-0.365-0.828-0.614-1.1 c-0.25-0.271-0.553-0.493-0.91-0.664c-0.357-0.171-0.707-0.286-1.049-0.346s-0.707-0.089-1.094-0.089s-0.803,0.095-1.25,0.285 c-0.446,0.189-0.857,0.428-1.233,0.714c-0.376,0.286-0.698,0.554-0.966,0.803c-0.268,0.25-0.491,0.479-0.669,0.687 C10.913,4.596,10.73,4.678,10.5,4.678s-0.413-0.082-0.547-0.246C9.774,4.224,9.551,3.995,9.284,3.746 c-0.268-0.249-0.59-0.517-0.966-0.803C7.942,2.656,7.531,2.417,7.085,2.228c-0.447-0.19-0.863-0.285-1.25-0.285 c-0.387,0-0.752,0.03-1.094,0.089c-0.342,0.06-0.692,0.175-1.049,0.346c-0.357,0.171-0.66,0.393-0.91,0.664 c-0.249,0.272-0.454,0.638-0.614,1.1s-0.24,0.993-0.24,1.596c0,1.25,0.695,2.571,2.087,3.962l6.484,6.25l6.473-6.239 C18.372,8.312,19.071,6.988,19.071,5.738z"/></g></g></g></switch></svg>