<svg xmlns="http://www.w3.org/2000/svg" xmlns:xlink="http://www.w3.org/1999/xlink" id="Layer_1" width="81" height="21" x="0" y="0" enable-background="new 0 0 81 21" version="1.1" viewBox="0 0 81 21" xml:space="preserve"><switch><g><g><g><path fill="#FFF" d="M45.674,1.165v1.68H37.82v4.767h6.888v1.68H37.82v6.867h-1.995V1.165H45.674z"/><path fill="#FFF" d="M48.425,1.165v14.994h-1.785V1.165H48.425z"/><path fill="#FFF" d="M58.484,16.39c-0.462,0-0.83-0.129-1.103-0.389c-0.273-0.259-0.41-0.682-0.41-1.271 c-0.49,0.588-1.061,1.012-1.711,1.271c-0.651,0.259-1.354,0.389-2.11,0.389c-0.49,0-0.952-0.052-1.386-0.157 c-0.434-0.105-0.815-0.28-1.145-0.525c-0.329-0.245-0.588-0.56-0.777-0.945c-0.189-0.385-0.284-0.851-0.284-1.396 c0-0.616,0.105-1.12,0.315-1.512c0.21-0.392,0.486-0.71,0.83-0.956c0.343-0.245,0.735-0.43,1.176-0.556s0.893-0.231,1.354-0.315 c0.49-0.098,0.956-0.171,1.396-0.221c0.441-0.049,0.83-0.119,1.166-0.21c0.336-0.091,0.602-0.224,0.798-0.399 c0.196-0.175,0.294-0.431,0.294-0.767c0-0.392-0.073-0.707-0.221-0.945C56.52,7.248,56.331,7.066,56.1,6.94 c-0.231-0.126-0.49-0.21-0.777-0.252c-0.287-0.042-0.571-0.063-0.851-0.063c-0.756,0-1.386,0.144-1.89,0.431 c-0.504,0.287-0.777,0.83-0.819,1.627h-1.785c0.028-0.672,0.168-1.239,0.42-1.701c0.252-0.462,0.588-0.836,1.008-1.124 s0.903-0.494,1.449-0.62c0.546-0.126,1.12-0.189,1.722-0.189c0.49,0,0.977,0.035,1.459,0.105c0.483,0.07,0.92,0.213,1.312,0.43 c0.392,0.217,0.707,0.522,0.945,0.914c0.238,0.392,0.357,0.903,0.357,1.533v5.586c0,0.42,0.024,0.728,0.073,0.924 c0.049,0.196,0.213,0.294,0.494,0.294c0.154,0,0.336-0.035,0.546-0.105v1.386C59.457,16.299,59.03,16.39,58.484,16.39z M55.985,10.92c-0.364,0.077-0.746,0.14-1.145,0.189c-0.399,0.049-0.802,0.105-1.208,0.168c-0.406,0.063-0.77,0.165-1.092,0.304 c-0.322,0.14-0.584,0.34-0.787,0.599c-0.203,0.259-0.305,0.613-0.305,1.061c0,0.294,0.06,0.542,0.179,0.746 c0.119,0.203,0.273,0.367,0.462,0.493s0.413,0.217,0.672,0.273c0.259,0.056,0.521,0.084,0.788,0.084 c0.588,0,1.092-0.08,1.512-0.241c0.42-0.161,0.763-0.364,1.029-0.609c0.266-0.245,0.462-0.511,0.588-0.798 c0.126-0.287,0.189-0.556,0.189-0.808v-1.827C56.643,10.72,56.349,10.843,55.985,10.92z"/><path fill="#FFF" d="M65.015,5.302v1.575h-2.163v6.741c0,0.21,0.018,0.378,0.053,0.504c0.035,0.126,0.102,0.224,0.2,0.294 c0.098,0.07,0.234,0.116,0.409,0.137c0.175,0.021,0.402,0.031,0.683,0.031h0.819v1.575H63.65c-0.462,0-0.858-0.032-1.187-0.095 c-0.329-0.063-0.595-0.178-0.798-0.346c-0.203-0.168-0.354-0.406-0.452-0.714c-0.098-0.308-0.147-0.714-0.147-1.218V6.877 h-1.848V5.302h1.848V2.047h1.785v3.255H65.015z"/><path fill="#FFF" d="M70.579,5.302v1.575h-2.163v6.741c0,0.21,0.018,0.378,0.053,0.504c0.035,0.126,0.102,0.224,0.2,0.294 c0.098,0.07,0.234,0.116,0.409,0.137c0.175,0.021,0.402,0.031,0.683,0.031h0.819v1.575h-1.365c-0.462,0-0.858-0.032-1.187-0.095 c-0.329-0.063-0.595-0.178-0.798-0.346c-0.203-0.168-0.354-0.406-0.452-0.714c-0.098-0.308-0.147-0.714-0.147-1.218V6.877 h-1.848V5.302h1.848V2.047h1.785v3.255H70.579z"/><path fill="#FFF" d="M75.146,18.931c-0.203,0.364-0.427,0.662-0.672,0.893c-0.245,0.231-0.515,0.399-0.809,0.504 s-0.644,0.158-1.05,0.158c-0.21,0-0.42-0.014-0.63-0.042c-0.21-0.028-0.413-0.077-0.609-0.147v-1.638 c0.168,0.056,0.339,0.112,0.515,0.168c0.175,0.056,0.354,0.084,0.536,0.084c0.364,0,0.658-0.084,0.882-0.252 s0.42-0.413,0.588-0.735l0.735-1.827L70.327,5.302h2.016l3.171,8.883h0.042l3.045-8.883h1.89l-4.725,12.285 C75.556,18.119,75.35,18.567,75.146,18.931z"/></g><g><path fill="#FFF" d="M20,5.738c0,1.645-0.852,3.319-2.556,5.022l-6.953,6.696c-0.134,0.134-0.298,0.201-0.491,0.201 s-0.357-0.067-0.491-0.201l-6.964-6.719c-0.074-0.06-0.177-0.156-0.307-0.29c-0.13-0.134-0.337-0.377-0.62-0.731 S1.083,9,0.859,8.628s-0.422-0.822-0.597-1.35S0,6.236,0,5.738c0-1.637,0.473-2.917,1.417-3.839 c0.945-0.922,2.25-1.384,3.917-1.384c0.461,0,0.932,0.08,1.412,0.24c0.48,0.16,0.926,0.375,1.339,0.647 c0.413,0.272,0.768,0.526,1.066,0.765C9.449,2.405,9.732,2.658,10,2.925c0.268-0.268,0.551-0.521,0.848-0.759 s0.653-0.493,1.066-0.765c0.413-0.271,0.859-0.487,1.339-0.647c0.48-0.16,0.95-0.24,1.412-0.24c1.667,0,2.973,0.461,3.917,1.384 C19.527,2.821,20,4.101,20,5.738z M18.571,5.738c0-0.603-0.08-1.134-0.24-1.596c-0.16-0.461-0.365-0.828-0.614-1.1 c-0.25-0.271-0.553-0.493-0.91-0.664c-0.357-0.171-0.707-0.286-1.049-0.346s-0.707-0.089-1.094-0.089s-0.803,0.095-1.25,0.285 c-0.446,0.189-0.857,0.428-1.233,0.714c-0.376,0.286-0.698,0.554-0.966,0.803c-0.268,0.25-0.491,0.479-0.669,0.687 C10.413,4.596,10.23,4.678,10,4.678S9.587,4.596,9.453,4.432C9.274,4.224,9.051,3.995,8.784,3.746 c-0.268-0.249-0.59-0.517-0.966-0.803C7.442,2.656,7.031,2.417,6.585,2.228c-0.447-0.19-0.863-0.285-1.25-0.285 c-0.387,0-0.752,0.03-1.094,0.089c-0.342,0.06-0.692,0.175-1.049,0.346c-0.357,0.171-0.66,0.393-0.91,0.664 c-0.249,0.272-0.454,0.638-0.614,1.1s-0.24,0.993-0.24,1.596c0,1.25,0.695,2.571,2.087,3.962L10,15.95l6.473-6.239 C17.872,8.312,18.571,6.988,18.571,5.738z"/></g></g></g></switch></svg>