<svg xmlns="http://www.w3.org/2000/svg" xmlns:xlink="http://www.w3.org/1999/xlink" id="Layer_1" width="400" height="285" x="0" y="0" enable-background="new 0 0 400 285" version="1.1" viewBox="0 0 400 285" xml:space="preserve"><g opacity=".3"><g><polyline fill="none" stroke="#626262" stroke-miterlimit="10" stroke-width="2" points="398 281 398 284 396 284"/><line x1="394" x2="5" y1="284" y2="284" fill="none" stroke="#626262" stroke-dasharray="5 2" stroke-miterlimit="10" stroke-width="2"/><polyline fill="none" stroke="#626262" stroke-miterlimit="10" stroke-width="2" points="4 284 1 284 1 281"/><line x1="1" x2="1" y1="279" y2="4" fill="none" stroke="#626262" stroke-dasharray="5 2" stroke-miterlimit="10" stroke-width="2"/><polyline fill="none" stroke="#626262" stroke-miterlimit="10" stroke-width="2" points="1 3 1 1 4 1"/><line x1="6" x2="395" y1="1" y2="1" fill="none" stroke="#626262" stroke-dasharray="5 2" stroke-miterlimit="10" stroke-width="2"/><polyline fill="none" stroke="#626262" stroke-miterlimit="10" stroke-width="2" points="396 1 398 1 398 3"/><line x1="398" x2="398" y1="5" y2="280" fill="none" stroke="#626262" stroke-dasharray="5 2" stroke-miterlimit="10" stroke-width="2"/></g></g><path fill="#F0F0F0" d="M273,2v59c0,1.104-0.896,2-2,2H126c-1.104,0-2-0.896-2-2V2"/><rect width="69" height="4" x="135" y="12" fill="#E6E6E6"/><rect width="43" height="4" x="220" y="12" fill="#E6E6E6"/><rect width="61" height="4" x="135" y="21" fill="#E6E6E6"/><path fill="#2C2C2C" d="M223,51c0,1.104-0.896,2-2,2h-33c-1.104,0-2-0.896-2-2V37c0-1.104,0.896-2,2-2h33c1.104,0,2,0.896,2,2V51z"/><path fill="#00CFBC" d="M263,51c0,1.104-0.896,2-2,2h-33c-1.104,0-2-0.896-2-2V37c0-1.104,0.896-2,2-2h33c1.104,0,2,0.896,2,2V51z"/></svg>