<svg xmlns="http://www.w3.org/2000/svg" xmlns:xlink="http://www.w3.org/1999/xlink" id="Layer_1" width="400" height="285" x="0" y="0" enable-background="new 0 0 400 285" version="1.1" viewBox="0 0 400 285" xml:space="preserve"><g opacity=".3"><g><polyline fill="none" stroke="#626262" stroke-miterlimit="10" stroke-width="2" points="398 281 398 284 396 284"/><line x1="394" x2="5" y1="284" y2="284" fill="none" stroke="#626262" stroke-dasharray="5 2" stroke-miterlimit="10" stroke-width="2"/><polyline fill="none" stroke="#626262" stroke-miterlimit="10" stroke-width="2" points="4 284 1 284 1 281"/><line x1="1" x2="1" y1="279" y2="4" fill="none" stroke="#626262" stroke-dasharray="5 2" stroke-miterlimit="10" stroke-width="2"/><polyline fill="none" stroke="#626262" stroke-miterlimit="10" stroke-width="2" points="1 3 1 1 4 1"/><line x1="6" x2="395" y1="1" y2="1" fill="none" stroke="#626262" stroke-dasharray="5 2" stroke-miterlimit="10" stroke-width="2"/><polyline fill="none" stroke="#626262" stroke-miterlimit="10" stroke-width="2" points="396 1 398 1 398 3"/><line x1="398" x2="398" y1="5" y2="280" fill="none" stroke="#626262" stroke-dasharray="5 2" stroke-miterlimit="10" stroke-width="2"/></g></g><g><path fill="#00CFBC" d="M274.5,150.443c0,1.412-1.145,2.557-2.555,2.557h-41.891c-1.412,0-2.556-1.145-2.556-2.557v-17.889 c0-1.412,1.144-2.556,2.556-2.556h41.891c1.41,0,2.555,1.144,2.555,2.556V150.443z"/><path fill="#F0F0F0" d="M221.5,150.443c0,1.412-1.145,2.557-2.555,2.557h-89.89c-1.411,0-2.555-1.145-2.555-2.557v-17.889 c0-1.412,1.144-2.556,2.555-2.556h89.89c1.412,0,2.556,1.144,2.556,2.556L221.5,150.443L221.5,150.443z"/></g></svg>